<svg xmlns="http://www.w3.org/2000/svg" width="604" height="715" viewBox="0 0 604 715">
  <defs>
    <style>
      .cls-1 {
        fill: #473bf0;
        fill-rule: evenodd;
        opacity: 0.07;
      }
    </style>
  </defs>
  <path id="faq-blob.svg" class="cls-1" d="M1123.01,2173.76c7.5-74.97,101.81-92.13,191.61-74.25,92.45,18.58,180.39,72.21,236.58,155.07,113.33,165.97,63.66,387.85-110.94,495.58-86.82,53.99-190.07,68.79-282.53,50.2-89.79-17.88-168.785-69.14-145.66-131.02,6.95-32.17,42.96-62.83,73.78-98.24,31.75-35.17,58.31-75.08,67.88-120.04,10.51-44.72,4.02-94.49-8.85-143.7-11.93-48.95-30.24-97.34-21.87-133.6h0Z" transform="translate(-1008 -2093)"/>
</svg>
